<?xml version="1.0" encoding="utf-8"?>
<svg xmlns="http://www.w3.org/2000/svg" xmlns:xlink="http://www.w3.org/1999/xlink" 
  height="512" width="512" viewBox="0 0 512 512">
  <rect width="512" height="512" stroke="red" fill="rgba(255,255,255,0.95)" opacity="0.95" ></rect>
  <rect id="Face" x="58" y="122" rx="200" ry="150" width="402" height="302" stroke="#000000" stroke-width="5" fill="#FFFFFF"/>
  <ellipse fill="#000000" cx="154" cy="306" rx="14" ry="18"/>
  <ellipse fill="#000000" cx="353" cy="306" rx="14" ry="18"/>
  <ellipse fill="#eec827" stroke="#000000" stroke-width="10" cx="256" cy="340" rx="20" ry="12"/>
  <path fill="#FFFFFF" stroke="#000000" stroke-width="10" d="M80,192 c-1 -83, 1 -130, 101 -60"/>
  <path fill="#FFFFFF" stroke="#000000" stroke-width="10" d="M340,128 c 90 -60, 90 -45, 95 64"/>
  <path d="M96,288 Q 66 281, 14 290" stroke="#000000" stroke-width="10"/>
  <path d="M96,330 Q 54 329 35 344" stroke="#000000" stroke-width="10"/>
  <path d="M120,360 Q 81 369 53 390" stroke="#000000" stroke-width="10"/>
  <path d="M416,288 Q 457 277 498 280" stroke="#000000" stroke-width="10"/>
  <path d="M420,320 Q 451 319 485 328" stroke="#000000" stroke-width="10"/>
  <path d="M408,355 Q 446 363 480 380" stroke="#000000" stroke-width="10"/>
  <path d="M325,189 Q 229 198 264 132 C 286 79 307 86 350 136" fill="#ff0000" stroke="#000000" stroke-width="10"/>
  <path d="M391,163 Q 474 159 440 219 C 412 267 384 250 362 203" fill="#ff0000" stroke="#000000" stroke-width="10"/>
  <circle fill="#ff0000" stroke="#000000" stroke-width="11" cx="360" cy="173" r="30"/>
</svg>
    