<?xml version="1.0" encoding="utf-8"?>
<!-- Generator: Adobe Illustrator 26.0.2, SVG Export Plug-In . SVG Version: 6.00 Build 0)  -->
<svg version="1.1" id="圖層_1" xmlns="http://www.w3.org/2000/svg" xmlns:xlink="http://www.w3.org/1999/xlink" x="0px" y="0px"
	 viewBox="0 0 512 512" style="enable-background:new 0 0 512 512;" xml:space="preserve">
<style type="text/css">
	.st0{fill:#FFFFFF;stroke:#000000;stroke-width:5;}
	.st1{fill:#FFCE00;stroke:#000000;stroke-width:6;}
	.st2{fill:#FF0000;stroke:#000000;stroke-width:6;}
</style>
<path class="st0" d="M448.8,222.4c2.3-111.3-30.3-149.6-118.4-90.9l0,0c-21.9-6.2-45.6-9.6-70.4-9.6h-2c-27.9,0-54.4,4.3-78.6,12
	C80.8,66,63.6,151.2,64.6,233.8l1.5-4.1C60.8,243.2,58,257.3,58,272v2c0,82.8,89.5,150,200,150h2c110.5,0,200-67.2,200-150v-2
	C460,254.6,456,237.9,448.8,222.4z"/>
<ellipse class="st1" cx="259.3" cy="318" rx="20" ry="12"/>
<path class="st2" d="M344.6,165.5c-42.7,2.3-89.3,3-66-41c22-53,31.6-30,74.6,20"/>
<path class="st2" d="M396.3,162.7c65.9-1.8,89.4-10.1,64.9,41.8c-16.9,46.9-47.8,11.8-74.7-21.3"/>
<ellipse cx="154.3" cy="300" rx="14" ry="18"/>
<ellipse cx="363.7" cy="300" rx="14" ry="18"/>
<path class="st2" d="M31.3,310.2c0,0,40.1-12.9,53.1-4.1"/>
<path class="st2" d="M51.8,354.3c0,0,30.5-13.5,41.1-12.6"/>
<path class="st2" d="M72.4,387.7c0,0,28.1-24.9,38.2-23.7"/>
<path class="st2" d="M490.4,306.5c0,0-40.1-12.9-53.1-4.1"/>
<path class="st2" d="M469.9,350.6c0,0-30.5-13.5-41.1-12.6"/>
<path class="st2" d="M449.4,384c0,0-28.1-24.9-38.2-23.7"/>
<ellipse transform="matrix(0.4233 -0.906 0.906 0.4233 57.2805 387.6347)" class="st2" cx="333.1" cy="148.8" rx="13.9" ry="21"/>
<ellipse transform="matrix(0.4233 -0.906 0.906 0.4233 70.5178 475.4968)" class="st2" cx="408.7" cy="182.4" rx="13.9" ry="21"/>
<circle class="st2" cx="370.8" cy="160.3" r="30"/>
</svg>
