<?xml version="1.0" encoding="utf-8"?>
<!-- Generator: Adobe Illustrator 26.0.2, SVG Export Plug-In . SVG Version: 6.00 Build 0)  -->
<svg version="1.1" id="圖層_1" xmlns="http://www.w3.org/2000/svg" xmlns:xlink="http://www.w3.org/1999/xlink" x="0px" y="0px"
	 viewBox="0 0 512 512" style="enable-background:new 0 0 512 512;" xml:space="preserve">
<style type="text/css">
	.st0{fill:none;stroke:#0098FF;stroke-width:11;}
	.st1{fill:#0098FF;stroke:#000000;stroke-width:3;}
	.st2{fill:#FFFFFF;stroke:#000000;stroke-width:3;}
	.st3{fill:#FF0000;stroke:#000000;stroke-width:3;}
	.st4{fill:#FFFF00;stroke:#000000;stroke-width:3;}
	.st5{fill:#FF5F2E;stroke:#000000;stroke-width:3;}
	.st6{fill:#FFFFFF;}
</style>
<circle id="_x3C_路徑_x3E__00000006708229567016455510000005732809061493341066_" class="st0" cx="241.6" cy="265.7" r="170.1"/>
<path class="st1" d="M89,261.7c0,0,43.9,76.9,60,88.7c16.2,11.7,47.9-39.4,47.9-39.4l-88.5-65.3L89,261.7z"/>
<path class="st1" d="M385.1,366.7c0,0-45.7-66.5-61.6-76.1c-15.9-9.6-42.7,38.3-42.7,38.3l87,53.4L385.1,366.7z"/>
<path id="_x3C_路徑_x3E__00000140729572695354053620000014887475851494092164_" class="st1" d="M317.8,429.7H164.7
	c-6.6,0-12-5.4-12-12V310.9c0-6.6,5.4-12,12-12h153.1c6.6,0,12,5.4,12,12v106.8C329.8,424.3,324.4,429.7,317.8,429.7z"/>
<ellipse id="_x3C_路徑_x3E_" class="st1" cx="243.6" cy="204.1" rx="124" ry="118.7"/>
<ellipse id="_x3C_路徑_x3E__00000059293906321547940680000003872295396718631566_" class="st2" cx="243.3" cy="380.1" rx="69.2" ry="44.3"/>
<path class="st2" d="M203.1,383.9c0,0-1.4,34.5,40.4,34.9s40.7-34,40.7-34L203.1,383.9z"/>
<circle id="_x3C_路徑_x3E__00000003079783898419198960000014766290611079879567_" class="st2" cx="378.7" cy="380.1" r="28"/>
<circle id="_x3C_路徑_x3E__00000046333279773758357600000003070568793933240721_" class="st2" cx="93.1" cy="242.2" r="33.1"/>
<circle id="_x3C_路徑_x3E__00000162331332331813731500000008036957604742160035_" class="st2" cx="242.1" cy="217" r="95.8"/>
<path class="st3" d="M160.8,299.9c0,0,83.4,103.2,167.1-3.9c-5.4-4.3-7.8-3.3-7.8-3.3s-65.5,66.9-150.5,3.3L160.8,299.9z"/>
<circle id="_x3C_路徑_x3E__00000052101959302718521220000013224880563671012244_" class="st4" cx="244.5" cy="358.5" r="21.7"/>
<path class="st4" d="M222.8,353.5c0,0,20.2-23.1,43.3,0"/>
<path class="st4" d="M222.8,359.5c0,0,20.2-23.1,43.3,0"/>
<circle id="_x3C_路徑_x3E__00000113350232726670708200000006308606442493847229_" class="st4" cx="244.7" cy="359.7" r="5.1"/>
<line class="st1" x1="244.7" y1="364.8" x2="244.5" y2="380.1"/>
<circle id="_x3C_路徑_x3E__00000132083204200505547520000015465527063140119683_" class="st3" cx="242" cy="205.4" r="82.8"/>
<path class="st5" d="M190.3,270.9c0,0,22.4-42.7,51.2-19c27.8-26.2,52.3,19.1,52.3,19.1S244.3,308.6,190.3,270.9z"/>
<path class="st2" d="M328.6,167.7c0,0,4.5-7.7,15.9-2c11.3,5.7,15.6,21.9,11.3,33.2s-24.7,19.3-35.2,15.2
	c-58.3-22.6-145.5-3.8-161.6-0.3s-38.8-23.4-25.7-40.8s25.7-5.5,25.7-5.5L328.6,167.7z"/>
<ellipse id="_x3C_路徑_x3E__00000139280421541477762300000012458597658099661707_" class="st2" cx="241.6" cy="161.4" rx="105.9" ry="38.8"/>
<ellipse id="_x3C_路徑_x3E__00000051347840060484482480000003968492618950953914_" class="st6" cx="240.5" cy="175.3" rx="105" ry="25.8"/>
<circle id="_x3C_路徑_x3E__00000137818018214958599070000011410806064732172692_" class="st3" cx="243.3" cy="149.6" r="15.7"/>
<ellipse id="_x3C_路徑_x3E__00000147203037978528545370000003493416376505996725_" class="st2" cx="219.4" cy="116.9" rx="22.6" ry="28.1"/>
<ellipse id="_x3C_路徑_x3E__00000036965060248244407090000003731044957734296764_" class="st2" cx="266.1" cy="116.9" rx="22.6" ry="28.1"/>
<ellipse id="_x3C_路徑_x3E__00000159437878028764082760000018242863455496690055_" cx="229" cy="116.9" rx="9.6" ry="12.2"/>
<ellipse id="_x3C_路徑_x3E__00000087407913564329432650000001177185933751682736_" cx="256.5" cy="116.9" rx="9.6" ry="12.2"/>
<line class="st2" x1="243.3" y1="165.4" x2="243.3" y2="203.2"/>
<line class="st2" x1="266.1" y1="171" x2="327.7" y2="161.7"/>
<line class="st2" x1="266.1" y1="180" x2="329.8" y2="180"/>
<line class="st2" x1="266.1" y1="189.3" x2="329.8" y2="197.9"/>
<line class="st2" x1="219.4" y1="171.2" x2="157.9" y2="161.9"/>
<line class="st2" x1="219.4" y1="180.1" x2="155.7" y2="180.1"/>
<line class="st2" x1="219.4" y1="189.5" x2="155.7" y2="198"/>
<circle id="_x3C_路徑_x3E__00000091732690409803808440000009694973939858996912_" class="st6" cx="238.6" cy="143" r="3.4"/>
<ellipse id="_x3C_路徑_x3E__00000059287622268687893500000007996682862504186752_" class="st6" cx="233.4" cy="114" rx="3.4" ry="4.4"/>
<ellipse id="_x3C_路徑_x3E__00000174601298421579950780000001560444594290712507_" class="st6" cx="253.1" cy="113.5" rx="3.4" ry="4.4"/>
</svg>
