<?xml version="1.0" encoding="utf-8"?>

<svg xmlns="http://www.w3.org/2000/svg" xmlns:xlink="http://www.w3.org/1999/xlink" 
  height="512" width="512" viewBox="0 0 512 512">
	
<style type="text/css">
	.st0{opacity:0.95;fill:#FFFFFF;enable-background:new    ;}
	.st1{fill:none;stroke:#0098FF;stroke-width:11;}
	.st2{fill:#0098FF;stroke:#000000;stroke-width:3;}
	.st3{fill:#FFFFFF;stroke:#000000;stroke-width:3;}
	.st4{fill:#FF0000;stroke:#000000;stroke-width:3;}
	.st5{fill:#FFFF00;stroke:#000000;stroke-width:3;}
	.st6{fill:#FF5F2E;stroke:#000000;stroke-width:3;}
	.st7{fill:#FFFFFF;}
</style>
<rect y="0" class="st0" width="512" height="512"/>
<circle id=" class="st1" cx="260.8" cy="259.5" r="170.1"/>
<path d="st2" d="M108.2,255.5c0,0,43.9,76.9,60,88.7c16.2,11.7,47.9-39.4,47.9-39.4l-88.5-65.3L108.2,255.5z"/>
<path class="st2" d="M404.4,360.5c0,0-45.7-66.5-61.6-76.1c-15.9-9.6-42.7,38.3-42.7,38.3l87,53.4L404.4,360.5z"/>
<path id="_x3C_路徑_x3E__00000140729572695354053620000014887475851494092164_" class="st2" d="M337.1,423.5H184
	c-6.6,0-12-5.4-12-12V304.7c0-6.6,5.4-12,12-12h153.1c6.6,0,12,5.4,12,12v106.8C349.1,418.1,343.7,423.5,337.1,423.5z"/>
<ellipse id="_x3C_路徑_x3E_" class="st2" cx="262.8" cy="197.9" rx="124" ry="118.7"/>
<ellipse id="_x3C_路徑_x3E__00000059293906321547940680000003872295396718631566_" class="st3" cx="262.6" cy="373.9" rx="69.2" ry="44.3"/>
<path class="st3" d="M222.3,377.6c0,0-1.4,34.5,40.4,34.9c41.7,0.3,40.7-34,40.7-34L222.3,377.6z"/>
<circle id="_x3C_路徑_x3E__00000003079783898419198960000014766290611079879567_" class="st3" cx="398" cy="373.9" r="28"/>
<circle id="_x3C_路徑_x3E__00000046333279773758357600000003070568793933240721_" class="st3" cx="112.3" cy="236" r="33.1"/>
<circle id="_x3C_路徑_x3E__00000162331332331813731500000008036957604742160035_" class="st3" cx="261.3" cy="210.8" r="95.8"/>
<path class="st4" d="M180.1,293.7c0,0,83.4,103.2,167.1-3.9c-5.4-4.3-7.8-3.3-7.8-3.3s-65.5,66.9-150.5,3.3L180.1,293.7z"/>
<circle id="_x3C_路徑_x3E__00000052101959302718521220000013224880563671012244_" class="st5" cx="263.7" cy="352.2" r="21.7"/>
<path class="st5" d="M242.1,347.2c0,0,20.2-23.1,43.3,0"/>
<path class="st5" d="M242.1,353.3c0,0,20.2-23.1,43.3,0"/>
<circle id="_x3C_路徑_x3E__00000113350232726670708200000006308606442493847229_" class="st5" cx="263.9" cy="353.5" r="5.1"/>
<line class="st2" x1="263.9" y1="358.6" x2="263.7" y2="373.9"/>
<circle id="_x3C_路徑_x3E__00000132083204200505547520000015465527063140119683_" class="st4" cx="261.2" cy="199.2" r="82.8"/>
<path class="st6" d="M209.5,264.7c0,0,22.4-42.7,51.2-19c27.8-26.2,52.3,19.1,52.3,19.1S263.6,302.4,209.5,264.7z"/>
<path class="st3" d="M347.8,161.4c0,0,4.5-7.7,15.9-2s15.6,21.9,11.3,33.2c-4.3,11.3-24.7,19.3-35.2,15.2
	c-58.3-22.6-145.5-3.8-161.6-0.3s-38.8-23.4-25.7-40.8s25.7-5.5,25.7-5.5L347.8,161.4z"/>
<ellipse id="_x3C_路徑_x3E__00000139280421541477762300000012458597658099661707_" class="st3" cx="260.8" cy="155.1" rx="105.9" ry="38.8"/>
<ellipse id="_x3C_路徑_x3E__00000051347840060484482480000003968492618950953914_" class="st7" cx="259.7" cy="169.1" rx="105" ry="25.8"/>
<circle id="_x3C_路徑_x3E__00000137818018214958599070000011410806064732172692_" class="st4" cx="262.6" cy="143.4" r="15.7"/>
<ellipse id="_x3C_路徑_x3E__00000147203037978528545370000003493416376505996725_" class="st3" cx="238.7" cy="110.7" rx="22.6" ry="28.1"/>
<ellipse id="_x3C_路徑_x3E__00000036965060248244407090000003731044957734296764_" class="st3" cx="285.4" cy="110.7" rx="22.6" ry="28.1"/>
<ellipse id="_x3C_路徑_x3E__00000159437878028764082760000018242863455496690055_" cx="248.3" cy="110.7" rx="9.6" ry="12.2"/>
<ellipse id="_x3C_路徑_x3E__00000087407913564329432650000001177185933751682736_" cx="275.8" cy="110.7" rx="9.6" ry="12.2"/>
<line class="st3" x1="262.6" y1="159.2" x2="262.6" y2="196.9"/>
<line class="st3" x1="285.4" y1="164.8" x2="346.9" y2="155.5"/>
<line class="st3" x1="285.4" y1="173.8" x2="349.1" y2="173.8"/>
<line class="st3" x1="285.4" y1="183.1" x2="349.1" y2="191.6"/>
<line class="st3" x1="238.7" y1="165" x2="177.1" y2="155.7"/>
<line class="st3" x1="238.7" y1="173.9" x2="175" y2="173.9"/>
<line class="st3" x1="238.7" y1="183.2" x2="175" y2="191.8"/>
<circle id= class="st7" cx="257.9" cy="136.8" r="3.4"/>
<ellipse id=" class="st7" cx="252.6" cy="107.8" rx="3.4" ry="4.4"/>
<ellipse id=" class="st7" cx="272.3" cy="107.3" rx="3.4" ry="4.4"/>
</svg>
