<?xml version="1.0" encoding="utf-8"?>
<!-- Generator: Adobe Illustrator 26.0.2, SVG Export Plug-In . SVG Version: 6.00 Build 0)  -->
<svg version="1.1" id="Layer_1" xmlns="http://www.w3.org/2000/svg" xmlns:xlink="http://www.w3.org/1999/xlink" x="0px" y="0px"
	 viewBox="0 0 1000 1000" style="enable-background:new 0 0 1000 1000;" xml:space="preserve">
<style type="text/css">
	.st0{fill:#FFB84A;}
	.st1{fill:#52B349;}
	.st2{opacity:0.3;fill:#52B349;enable-background:new    ;}
	.st3{fill:#35382E;}
	.st4{fill:#FF5C22;}
	.st5{fill:#2C2D2C;}
	.st6{fill:#E8CF38;stroke:#FCFBF7;stroke-width:2;stroke-linecap:round;stroke-linejoin:round;stroke-miterlimit:10;}
	.st7{fill:#FFFFFF;}
	.st8{fill:#F3AF9D;}
	.st9{fill:#DD9B8E;}
	.st10{opacity:0.29;fill:#FFFFFF;enable-background:new    ;}
	.st11{fill:#2C323A;}
	.st12{fill:#F74848;stroke:#020202;stroke-miterlimit:10;}
	.st13{fill:#E0415B;}
	.st14{fill:#E8CF38;}
	.st15{fill:#F9EDB4;}
	.st16{fill:none;}
	.st17{fill:none;stroke:#000000;stroke-miterlimit:10;}
</style>
<g id="illustration">
	<path class="st0" d="M525.2,862.4v46.8c0,48.8,55.4,50.3,55.4,4.5v-51.8L525.2,862.4z"/>
	<path class="st1" d="M-148,307.3c1.4-4.9-1.8-10.2-6.6-11.6c-5-1.4-10,1.6-11.4,6.4c-0.3,1.2-0.4,2.4-0.3,3.6
		c-4.6-1.5-9.1-2.9-13.4-4.3c1.7-6.4-2.4-13.4-8.8-15.2c-6.2-1.8-12.5,1.6-14.8,7.4c-21.6-7.3-34.8-12.1-34.8-12.1l25.7-24.7
		l-16.6-25c17.9-14.8,38.9-17.6,53.7-17.3c-1.1,1.1-1.9,2.5-2.4,4.1c-1.4,4.9,1.8,10.2,6.6,11.6c5,1.4,10-1.5,11.4-6.4
		c0.8-2.7,0.1-5.6-1.4-7.8c2.9,0.5,4.6,1,4.6,1l22.1,22l-6.5-27.7c14.4-1.5,28.9-2,43.4-1.7c-0.6,0.8-1,1.8-1.3,2.8
		c-1.4,4.9,1.8,10.2,6.6,11.6c5,1.4,10-1.6,11.4-6.4c0.7-2.5,0.3-5-1-7.2c112.8,7.5,267.4,95.4,267.4,95.4l-77.3,31.5
		c-61.8,9-176.2-0.9-258.3-26.3C-149.1,309.9-148.4,308.6-148,307.3z"/>
	<path class="st1" d="M-173.5,214.1c-1.1,1.1-1.9,2.5-2.4,4.1c-1.4,4.9,1.8,10.2,6.6,11.6c5,1.4,10-1.5,11.4-6.4
		c0.8-2.7,0.1-5.6-1.4-7.8c2.9,0.5,4.6,1,4.6,1l18.1,18c-7.7,1.1-17.6,3.6-33,7.1c-24.1,5.6-41.6,1.7-53.6-4.3l-3.9-5.9
		C-209.3,216.5-188.3,213.7-173.5,214.1z"/>
	<path class="st1" d="M70.5,266.6C23.2,278.9,5.7,275.7-62.4,253c-46.1-15.4-54-21-71.2-19.1l-5.5-23.2c14.4-1.5,28.9-2,43.4-1.7
		c-0.6,0.8-1,1.8-1.3,2.8c-1.4,4.9,1.8,10.2,6.6,11.6c5,1.4,10-1.6,11.4-6.4c0.7-2.5,0.3-5-1-7.2c115.4,17.3,231.1,86.4,227,70.8
		l38,24.4C162.9,296,90.6,261.4,70.5,266.6z"/>
	<path class="st2" d="M107.9,340.5c-61.8,9-176.2-0.9-258.3-26.3c0.9-1,1.6-2.2,2-3.6c1.4-4.9-1.8-10.2-6.6-11.6
		c-5-1.4-10,1.6-11.4,6.4c-0.3,1.2-0.4,2.4-0.3,3.6c-4.6-1.5-9.1-2.9-13.4-4.3c1.7-6.4-2.4-13.4-8.8-15.2
		c-6.2-1.8-12.5,1.6-14.8,7.4c-21.6-7.3-34.8-12.1-34.8-12.1l16.4-15.8c13.7,8.7,40.9,16.5,93.4,7.6c94.8-15.9,108,30,153.7,60.1
		c23.6,15.6,101.1-17.9,129.9-15.4L107.9,340.5z"/>
	<path class="st0" d="M421.9,862.4v46.8c0,48.8,55.4,50.3,55.4,4.5v-51.8L421.9,862.4z"/>
	<path class="st3" d="M623.8,574.2c0,0-3.6,29.8,22,32.3c25.6,2.6,57.1-26,90.2,0.8l-1.2,8.4c0,0-26.2-4.9-63.2,7.7
		c-27.1,9.2-88.2,17.6-81.2-57.7s31.1-26.8,31.5-25.2S623.8,574.2,623.8,574.2z"/>
	<path class="st4" d="M720.9,614.2c0,0,17.6,31.6,45.7,21.6c28-10,45.2-30.1,45.2-30.1s-17.3,4.9-30.9-10.4
		C767.3,579.9,721.1,570.9,720.9,614.2z"/>
	<path class="st0" d="M396.3,488.2c0,66.4,0,148.9,0,228.2c0,55.8,0,110,0,155.8c56.6,0,58.8,0,99.7,0c0-46.8,0-101.4,0-154.5
		c0-75.9,0-148.8,0-191.6c5.9,0,14.5,0,19.9,0c0,41.3,0,115.8,0,191.6c0,54.9,0,110.4,0,154.5c45,0,34.6,0,91.7,0
		c0-43,0-97.5,0-154.5c0-79.5,0-164,0-229.5L396.3,488.2L396.3,488.2z"/>
	<path class="st5" d="M396.2,648.3L434,660l-37.3,12.9C396.7,672.9,396.3,662.8,396.2,648.3z"/>
	<path class="st5" d="M396.8,600.3l37.2,21l-36.8,13C397.2,634.3,396.2,621.1,396.8,600.3z"/>
	<path class="st5" d="M396.2,688.5l28.2,6.7l-28.1,15.4C396.3,710.5,397.4,698.9,396.2,688.5z"/>
	<path class="st5" d="M608.7,641.3L571,652.9l37.3,12.9C608.2,665.8,608.7,655.7,608.7,641.3z"/>
	<path class="st5" d="M608.1,593.2l-37.2,21l36.8,13C607.7,627.2,608.7,614,608.1,593.2z"/>
	<path class="st5" d="M608.7,681.4l-28.2,6.7l28.1,15.4C608.6,703.5,607.5,691.8,608.7,681.4z"/>
	<path class="st6" d="M441.7,266.9c0,0,14-15.5,62.7-15.4s69.4,26.7,69.4,26.7l-4.5,1.6l-9.8,8c0,0-13.4-16.7-73.1-14.3
		c-34.4,1.4-38.9,9.3-38.9,9.3l-12.3-4.8L441.7,266.9z"/>
	<path class="st4" d="M380.4,494.4c0-47.3,6-116.9,31.1-167.4c8.4-16.8,18.9-31.5,32-42.5c15.7-13.2,35.3-21.2,59.4-21.2
		c26.1,0,46.9,9.2,63.4,24.3c10.3,9.4,19,21.2,26.2,34.4C620,372.4,627,444.5,627,494.4H380.4L380.4,494.4z"/>
	<ellipse class="st7" cx="502.8" cy="298.7" rx="22" ry="16.3"/>
	<path class="st0" d="M845.7,320.6l17-6.8c0,0,6.1,5.5,13,11.2s-4.7,18.4-15.3,10.6C849.7,327.8,845.7,320.6,845.7,320.6z"/>
	<path class="st4" d="M287.7,261.5l3,56.8c58.9,0.3,93.5-2.3,119.3,17.7l48.7-50.2C404.4,259.1,343.7,258.1,287.7,261.5z"/>
	<path class="st4" d="M547.6,284.8l43.3,53.2c27-16.2,67.7-16.3,126.6-16.7v-56.8C661.5,261.1,618.3,254.1,547.6,284.8z"/>
	<path class="st5" d="M648.7,261.4l10.5,24.4l10.6-24.2C669.7,261.6,661.1,261.4,648.7,261.4z"/>
	<path class="st5" d="M610,265.3l17.9,21l9.6-24.3C637.5,262,623.8,261.4,610,265.3z"/>
	<path class="st5" d="M680.8,262l6.2,18.2l9-16.9C696,263.4,689.8,262.7,680.8,262z"/>
	<path class="st5" d="M353.3,260.6l-11.6,23.9l-9.5-24.6C332.2,259.9,340.9,260,353.3,260.6z"/>
	<path class="st5" d="M392.7,265l-17.9,21l-9.6-24.3C365.3,261.7,379,261.1,392.7,265z"/>
	<path class="st5" d="M321.4,260.2l-6.9,18l-8.3-17.2C306.2,260.9,312.5,260.5,321.4,260.2z"/>
	<path class="st0" d="M292.9,268.1c-47.7,2.7-123.1,8.9-160.2,14.2c-37.1,5.3-40.1,40.1,5.3,39.5s95.2-3.5,159.7-12.1L292.9,268.1z"
		/>
	<path class="st0" d="M157.5,320.6l-17-6.8c0,0-6.1,5.5-13,11.2s4.7,18.4,15.3,10.6C153.5,327.8,157.5,320.6,157.5,320.6z"/>
	<path class="st0" d="M711.6,312.7c64.5,8.6,113.3,11.5,158.7,12.1s42.4-34.2,5.3-39.5c-37.1-5.3-114.5-11.5-162.2-14.2L711.6,312.7
		z"/>
	<path class="st8" d="M491.4,236.4h20.9c0,0,4.3,47.5,5.7,64c-2.1,6.8-9.1,8-15.5,7.8c-8.2-0.1-15.9-3.3-17.1-8.8L491.4,236.4z"/>
	<path class="st9" d="M491.4,236.4h20.9c1.9,12.6-21.6,59.4-26.8,59.4L491.4,236.4z"/>
	<path class="st10" d="M508,233.8c-47.1,2.6-65.9-12.7-67.3-37.8s8.7-59.3,22.3-74.6c12.7-6.1,46.2-9.6,71.1,0.5
		c6.8,8,13.8,18.8,18.5,46.2C558.1,200.4,555.2,231.2,508,233.8z"/>
	<g>
		<path class="st11" d="M514,147.6c10.7-5,14.2-5,19.2,0.7C528.2,147.6,527.5,151.1,514,147.6z"/>
		<circle id="leftBrow1_1_" cx="530.4" cy="148.8" r="0.8"/>
		<circle id="leftBrow4_1_" cx="506.8" cy="150.9" r="0.8"/>
		<circle id="leftBrow3_1_" cx="516.8" cy="147.7" r="0.8"/>
		<circle id="leftBrow0_1_" cx="534.4" cy="151.7" r="0.8"/>
		<circle id="leftBrow2_1_" cx="524.1" cy="147.3" r="0.8"/>
	</g>
	<g>
		<path class="st11" d="M484.6,148c-10.7-5-14.2-5-19.2,0.7C470.4,148,471.1,151.5,484.6,148z"/>
		<circle id="rightBrow1_1_" cx="466.6" cy="148.2" r="0.8"/>
		<circle id="rightBrow4_1_" cx="489.9" cy="151.2" r="0.8"/>
		<circle id="rightBrow3_1_" cx="480.1" cy="147.2" r="0.8"/>
		<circle id="rightBrow0_1_" cx="462.6" cy="151.9" r="0.8"/>
		<circle id="rightBrow2_1_" cx="472.8" cy="147.2" r="0.8"/>
	</g>
	<path class="st3" d="M514.4,114.1L496.2,140l-17-26.1C479.2,113.9,494.5,110.9,514.4,114.1z"/>
	<path class="st4" d="M495.1,104.2l1.7,11.7c0,0,22.5,0.2,33.3,4s21.8,39.6,21.8,39.6s7.7,40.3,0,53.1S520.1,233,520.1,233l-18.6,2
		l0.9,16.5c0,0,32.6-2,45.2-8.8s42.4-27.2,45.7-52.3s2.9-39.3-3.4-62.4S559,99.7,559,99.7l-17.5-3.8l-17,2.5L495.1,104.2z"/>
	<path class="st4" d="M495.1,104.2c0,0-20-2.8-32.7-7.4s-12.5-9.1-22.9-6.4c-10.4,2.6-26.3,9.1-34.3,41.5s5,70.7,9.6,77.7
		s25.4,31.8,46.3,36.3c20.8,4.5,41.4,5.7,41.4,5.7l-0.9-16.5c0,0-45.9-2.8-55-17.2s-3.5-43-2.2-51.9c3-21.9,14.2-33.2,14.2-33.2
		l26.9-15.9L497,116L495.1,104.2z"/>
	<g>
		<circle id="Eye1" cx="499.5" cy="155.6" r="0.8"/>
		<circle id="Eye0" cx="499.5" cy="149.8" r="0.8"/>
		<circle id="Eye3" cx="499.5" cy="168.2" r="0.8"/>
		<circle id="rightEye0_00000081611257768153792440000006291407489736388532_" cx="488.8" cy="172.7" r="0.8"/>
		<circle id="rightEye1_00000042008315304097857240000008610243630418942911_" cx="494" cy="172.7" r="0.8"/>
		<circle id="Eye2" cx="499.5" cy="161.1" r="0.8"/>
		<circle id="Eye4" cx="499.5" cy="173.5" r="0.8"/>
		<circle id="leftEye0_00000004524606546506936050000004266365345592802738_" cx="509.9" cy="172.7" r="0.8"/>
		<circle id="leftEye1_00000160187646918699768190000017486383562574340286_" cx="505.1" cy="172.7" r="0.8"/>
	</g>
	<g>
		<circle id="Eye1_00000020364339390683758250000006559555728053628032_" cx="499.2" cy="154.8" r="0.8"/>
		<circle id="Eye0_00000155139215685294336890000012619826737531253689_" cx="499.2" cy="148.8" r="0.8"/>
		<circle id="Eye3_00000035491806058080377030000005696547873003789709_" cx="499.2" cy="167.7" r="0.8"/>
		<circle id="rightEye0_00000176753761161004479700000007247058655722088882_" cx="488.2" cy="172.4" r="0.8"/>
		<circle id="rightEye1_00000164486385875308376450000011540649575715265174_" cx="493.5" cy="172.4" r="0.8"/>
		<circle id="Eye2_00000057105910258195910870000017614515964939794587_" cx="499.2" cy="160.4" r="0.8"/>
		<circle id="Eye4_00000021799447803955048280000013849568676717484183_" cx="499.2" cy="173.2" r="0.8"/>
		<circle id="leftEye0_00000137810160921588989280000017315195943377107892_" cx="509.8" cy="172.4" r="0.8"/>
		<circle id="leftEye1_00000119080277420357358060000010874399258022514345_" cx="504.9" cy="172.4" r="0.8"/>
	</g>
	<path class="st12" d="M516.1,201.6c-1.3,2.4-3.2,4.5-5.5,6.1c-3.4,2.5-7.7,4-12.4,4c-4.7,0-9-1.5-12.4-4c-2.2-1.7-4.1-3.7-5.5-6.1
		c-1.1-2-0.1-4.8,1.8-4.8h32.2C516.2,196.8,517.3,199.7,516.1,201.6z"/>
	<path class="st13" d="M509.9,207.5c-3.2,3-7.2,4.8-11.5,4.8s-8.3-1.8-11.5-4.8c3.2-3,7.2-4.8,11.5-4.8
		C502.7,202.7,506.7,204.5,509.9,207.5z"/>
	<path class="st3" d="M533.2,120.1l5.9-9.1c0,0,1.9-3.2,8.5,1.5s8.3,10.8,4.3,13.7s-10.3,7.5-10.3,7.5L533.2,120.1z"/>
	<path class="st3" d="M471.8,121.9l-8.4-10.5c0,0-9.1-1.8-8.4,4.5s2.5,12,2.5,12l0.9,4.8l13.4-7.9V121.9z"/>
	<path class="st7" d="M459.8,127.1c-1-10.1,3.2-10.4,3.2-10.4l4.1,5.3v2.2L459.8,127.1z"/>
	<path class="st7" d="M540.6,129c5.9-8.3,2.4-10.6,2.4-10.6l-6.2,2.6l-1.1,1.9L540.6,129z"/>
	<path class="st5" d="M430.7,938c0,0,13.1,19.5,40.3,0c-7.1-16.2-7.1-16.2-7.1-16.2l-3.5,15.1l-9.1-17.6l-6.7,13.7l-3.3-8.9
		L430.7,938z"/>
	<path class="st5" d="M532.8,938c0,0,13.1,19.5,40.3,0c-7.1-16.2-7.1-16.2-7.1-16.2l-3.5,15.1l-9.1-17.6l-6.7,13.7l-3.3-8.9
		L532.8,938z"/>
	<path class="st6" d="M524.8,298.7l22.8-13.9c0,0,7.6-11,22.1,0c14.4,11,22.8,42.8,22.8,42.8s-12.8,18.3-28.9,24.8
		c-16.1,6.5-23.5,5.7-23.5,5.7l-33.9-43.3C506.3,314.8,523.6,313.7,524.8,298.7z"/>
	<path class="st6" d="M480.4,298.7l-22.8-13.9c0,0-7.6-11-22.1,0c-14.4,11-22.8,42.8-22.8,42.8s12.8,18.3,28.9,24.8
		s23.5,5.7,23.5,5.7l33.9-43.3C499,314.8,481.6,313.7,480.4,298.7z"/>
	<path class="st14" d="M505.1,89l-5.3-34.9L492.7,89L479,55.1l0.9,46.6c0.3,1.6,0.1,0.5,0.2,0.9c1.2,0.8,3,2,5.6,3.7
		c13.1,8.6,26.1-0.3,26.1-0.3l5.9-47.7L505.1,89z"/>
	<ellipse transform="matrix(0.1602 -0.9871 0.9871 0.1602 278.2586 649.4538)" cx="520.8" cy="161.2" rx="8.9" ry="8.9"/>
	<path class="st15" d="M483.4,89c-1.1-4-1.8-8.1-2.5-12.2l0.5,22.9c0.1,0.7,0.2,0.9,0.2,0.9l0,0c1.2,0.8,3,2,5.6,3.7
		c3.1,2,6.2,3.1,9.1,3.5C490.2,102.9,485.7,97.2,483.4,89z"/>
	<circle class="st7" cx="523.6" cy="158.7" r="4.1"/>
	<circle cx="476.3" cy="161.3" r="8.9"/>
	<circle class="st7" cx="479.1" cy="158.8" r="4.1"/>
	<g>
		<path class="st3" d="M512.4,191c-0.1-0.2-0.4-0.2-0.5,0c-0.3,1.9-0.1,4.2-1.2,5.9c-1.2,1.9-3.6,3.4-6,2.8c-4.1-0.9-5.8-4.1-6-7.8
			c4-1.6,11.5-13.8,11.5-13.8s-4.1-6.8-12-6.5s-11.8,4.2-11.8,4.2s4.1,13.9,10,16c0.1,3.6-1.2,7.7-5.3,8.5c-2.9,0.6-6-0.7-6.9-3.7
			c-0.5-1.5-0.6-3-1-4.4c-0.1-0.2-0.4-0.2-0.5,0c-1,4.6,2.6,10.3,7.9,9.2c4.6-0.9,7.2-5.1,6.7-9.4c0.2,0,0.4,0,0.6,0
			c-0.1,4.2,2.8,8.8,7.5,8.8C510.6,200.9,513.9,195.9,512.4,191z"/>
		<circle id="nose1_00000006684749373908622000000016191641951720228239_" class="st16" cx="499.6" cy="156.1" r="0.8"/>
		<circle id="nose0_00000022545707968621264270000017413918354742073219_" class="st16" cx="499.6" cy="150.3" r="0.8"/>
		<circle id="nose3_00000065069542036135648760000017845787745490038917_" class="st16" cx="499.6" cy="168.7" r="0.8"/>
		<circle id="rightNose0_00000005225164740355467620000011868712767585962155_" cx="488.9" cy="173.2" r="0.8"/>
		<circle id="rightNose1_00000004509038741366050990000009572962454979352499_" cx="494.1" cy="173.2" r="0.8"/>
		<circle id="nose2_00000068676950634685763560000002227103371097740935_" class="st16" cx="499.6" cy="161.6" r="0.8"/>
		<circle id="nose4_00000026872080488193188870000012016461616692607163_" class="st16" cx="499.6" cy="174" r="0.8"/>
		<circle id="leftNose0_00000003100292247341161130000012550600210831956143_" cx="510" cy="173.2" r="0.8"/>
		<circle id="leftNose1_00000168117134667346052700000008181593255620332983_" cx="505.2" cy="173.2" r="0.8"/>
	</g>
	<path class="st3" d="M417.9,183.8c0,0,13.9-11.3,26.3-6.3s12.4,5,12.4,5L417.9,183.8z"/>
	<path class="st3" d="M417.9,194.2c0,0,13.9-11.3,26.3-6.3s12.4,5,12.4,5L417.9,194.2z"/>
	<path class="st3" d="M417.9,205.2c0,0,13.9-11.3,26.3-6.3s12.4,5,12.4,5L417.9,205.2z"/>
	<path class="st3" d="M545.3,181.1c0,0,13.9-11.3,26.3-6.3c12.4,5,12.4,5,12.4,5L545.3,181.1z"/>
	<path class="st3" d="M545.3,191.5c0,0,13.9-11.3,26.3-6.3c12.4,5,12.4,5,12.4,5L545.3,191.5z"/>
	<path d="M494.9,400.8c1.3-0.7,2.3-1,3.1-1c1.2,0,2.1,0.3,2.9,1c0.7,0.6,1.1,1.5,1.1,2.5c0,0.6-0.1,1.3-0.4,2l-1.9,4.7h2.1
		c1.5,0,2.3,0.5,2.3,1.6c0,0.7-0.3,1.3-0.8,1.7c-0.5,0.4-1.3,0.6-2.3,0.6h-3.6c-0.8,0-1.4-0.2-1.9-0.7c-0.5-0.4-0.8-1-0.8-1.6
		c0-0.4,0.1-1,0.4-1.7l1.7-4.1c0.2-0.5,0.3-0.9,0.3-1.2c0-0.7-0.5-1-1.4-1c-1.2,0-2.3,1.1-3.1,3.2l-2,5c-0.6,1.6-1.6,2.4-2.8,2.4
		c-0.5,0-0.9-0.2-1.3-0.5s-0.5-0.7-0.5-1.1c0-0.3,0.1-0.7,0.3-1.2l0.2-0.5l7.9-19.4c0.7-1.7,1.6-2.5,2.8-2.5c0.5,0,0.9,0.2,1.3,0.5
		s0.5,0.7,0.5,1.2c0,0.4-0.2,1-0.5,1.7L494.9,400.8z"/>
	<path d="M509.7,410h2c1.5,0,2.3,0.5,2.3,1.6c0,0.7-0.3,1.3-0.8,1.7c-0.5,0.4-1.3,0.6-2.3,0.6H508c-1.1,0-1.9-0.2-2.5-0.7
		c-0.6-0.4-0.9-1-0.9-1.8c0-0.4,0.1-0.9,0.4-1.5l3-7.4l0.2-0.5c0.6-1.4,1.4-2,2.7-2c0.5,0,0.9,0.2,1.3,0.5s0.6,0.7,0.6,1.2
		c0,0.4-0.2,1-0.5,1.8L509.7,410z"/>
	<path d="M512.1,394.3c0.7,0,1.3,0.2,1.8,0.7s0.7,1.1,0.7,1.8s-0.2,1.3-0.7,1.8s-1.1,0.7-1.8,0.7s-1.3-0.2-1.8-0.7s-0.7-1.1-0.7-1.8
		s0.2-1.3,0.7-1.8S511.4,394.3,512.1,394.3z"/>
	<path d="M528.2,410h2.2c1.5,0,2.3,0.5,2.3,1.6c0,0.7-0.3,1.3-0.8,1.7c-0.5,0.4-1.3,0.6-2.2,0.6h-3.8c-0.7,0-1.4-0.2-1.9-0.7
		c-0.5-0.4-0.8-1-0.8-1.7c0-0.4,0.2-1,0.5-1.8l1.6-4c0.2-0.4,0.3-0.7,0.3-1s-0.1-0.5-0.4-0.7c-0.2-0.2-0.6-0.3-1-0.3
		c-1.2,0-2.2,0.9-3,2.8l-2.1,5.3c-0.6,1.6-1.6,2.4-2.9,2.4c-0.5,0-1-0.2-1.3-0.5c-0.4-0.3-0.5-0.7-0.5-1.2c0-0.3,0.1-0.7,0.3-1.2
		l0.2-0.5l3.7-9c0.5-1.2,1.3-1.8,2.4-1.8c0.9,0,1.6,0.4,2,1.2c1.3-1,2.5-1.5,3.7-1.5c1.1,0,2.1,0.3,2.8,1s1.1,1.5,1.1,2.5
		c0,0.6-0.1,1.2-0.4,1.8L528.2,410z"/>
	<path d="M543.7,414.6h2.1c1.5,0,2.3,0.5,2.3,1.6c0,0.7-0.3,1.3-0.8,1.7c-0.5,0.4-1.3,0.6-2.3,0.6h-2.9c-0.4,1-1,2.4-1.9,4.1
		c-1.6,3-3.9,4.5-7,4.5c-1.8,0-3.4-0.6-4.7-1.7c-1.3-1.2-1.9-2.6-1.9-4.3c0-1.2,0.3-2.3,1-3.3s1.6-1.8,2.7-2.3
		c1.3-0.6,3.2-0.9,5.7-0.9h3l0.5-1.3c-0.9,0.4-1.7,0.6-2.5,0.6c-1.3,0-2.3-0.3-3.1-1s-1.2-1.5-1.2-2.6c0-0.6,0.3-1.6,0.8-2.9l2-4.9
		l0.2-0.5c0.6-1.4,1.5-2,2.7-2c0.5,0,1,0.2,1.3,0.5s0.5,0.8,0.5,1.3c0,0.4-0.2,0.9-0.5,1.7l-1.8,4.3c-0.3,0.7-0.4,1.2-0.4,1.4
		c0,0.6,0.3,0.9,1.1,0.9c0.6,0,1.1-0.2,1.7-0.5s0.9-0.7,1.1-1.1l2.4-5.9l0.2-0.5c0.6-1.4,1.5-2,2.7-2c0.5,0,1,0.2,1.3,0.5
		s0.5,0.8,0.5,1.3c0,0.4-0.1,0.8-0.3,1.2l-0.2,0.5L543.7,414.6z"/>
	<path class="st4" d="M537.8,418.6h-2.5c-2.8,0-4.2,0.9-4.2,2.6c0,0.6,0.2,1.1,0.6,1.5s0.9,0.6,1.5,0.6c0.9,0,1.7-0.3,2.3-1
		C536.2,421.5,536.9,420.3,537.8,418.6z"/>
	<path d="M477.3,401.5l1.7,2.1l1,1.2c1.9,2.3,2.8,4.7,2.8,7.3c0,2.5-0.8,4.7-2.5,6.5c-2.2,2.6-5.2,3.9-8.8,3.9
		c-2.8,0-5.1-0.9-6.9-2.6s-2.7-4-2.7-6.7c0-3.3,1.4-6.1,4.2-8.3c1.5-1.2,2.9-1.8,4.1-1.8c0.7,0,1.2,0.2,1.6,0.6s0.6,0.9,0.6,1.4
		c0,0.8-0.5,1.5-1.4,2.1l-1.5,0.9c-0.8,0.5-1.5,1.2-2.1,2.2c-0.6,0.9-0.8,1.8-0.8,2.8c0,1.4,0.5,2.6,1.5,3.6c1,0.9,2.2,1.4,3.7,1.4
		c1.7,0,3.1-0.6,4.3-1.9c1.2-1.2,1.8-2.7,1.8-4.4c0-1.1-0.2-2-0.7-2.9s-1.6-2.2-3.2-4c-1.1-1.3-2-2.4-2.5-3.3h-4.9
		c-1.7,0-2.5-0.6-2.5-1.7c0-0.8,0.3-1.5,0.9-1.9c0.6-0.5,1.4-0.7,2.5-0.7h3.1c0.2-2.4,1.3-4.4,3.3-5.9c1.9-1.6,4.3-2.3,7-2.3
		c2,0,3.7,0.6,5,1.7s1.9,2.6,1.9,4.4c0,2.4-1,4.2-3.1,5.5c-1.2,0.7-3,1.1-5.5,1.1h-1.9V401.5z"/>
	<path class="st4" d="M475.1,397.2h4.3c2.5,0,3.7-0.7,3.7-2.1c0-0.6-0.3-1-0.8-1.3s-1.2-0.5-2-0.5c-1.3,0-2.5,0.4-3.6,1.2
		S475.2,396.2,475.1,397.2z"/>
	<path class="st3" d="M545.3,202.5c0,0,13.9-11.3,26.3-6.3c12.4,5,12.4,5,12.4,5L545.3,202.5z"/>
</g>
<g id="skeleton_1_">
	<circle id="rightShoulder" cx="392.8" cy="294.3" r="8.2"/>
	<circle id="rightElbow" cx="289.3" cy="294.4" r="8.2"/>
	
		<ellipse id="rightWrist" transform="matrix(0.9565 -0.2918 0.2918 0.9565 -82.2878 49.8214)" cx="125.9" cy="300.8" rx="8.2" ry="8.2"/>
	<circle id="rightHip" cx="443.1" cy="510.1" r="8.2"/>
	<circle id="rightKnee" cx="449.5" cy="670.3" r="8.2"/>
	<circle id="rightAnkle" cx="449.5" cy="878.3" r="8.2"/>
	<circle id="leftShoulder" cx="605.7" cy="294.3" r="8.2"/>
	<circle id="leftElbow" cx="710.1" cy="294" r="8.2"/>
	<circle id="leftWrist" cx="873.5" cy="300.3" r="8.2"/>
	<circle id="leftHip" cx="559.5" cy="509.3" r="8.2"/>
	<circle id="leftKnee" cx="559.5" cy="670.3" r="8.2"/>
	<circle id="leftAnkle" cx="559.5" cy="878.3" r="8.2"/>
	<polygon class="st17" points="392.7,294.6 443,510.4 559.4,509.6 605.6,294.6 	"/>
	<polyline class="st17" points="391.7,294.6 289,294.6 125.7,300.9 	"/>
	<polyline class="st17" points="607.1,294.2 710.3,294.2 873.6,300.6 	"/>
	<polyline class="st17" points="443,510.4 449.4,670.6 449.4,878.6 	"/>
	<polyline class="st17" points="559.4,509.6 559.4,670.6 559.4,878.6 	"/>
	<circle id="rightEye0" cx="468.6" cy="160.2" r="0.8"/>
	<circle id="rightBrow1" cx="466.4" cy="148.3" r="0.8"/>
	<circle id="rightBrow4" cx="489.7" cy="151.3" r="0.8"/>
	<circle id="nose1" cx="497.6" cy="161.2" r="0.8"/>
	<circle id="rightBrow3" cx="479.9" cy="147.3" r="0.8"/>
	<circle id="rightEye1" cx="473.8" cy="156.5" r="0.8"/>
	<circle id="rightBrow0" cx="462.4" cy="152" r="0.8"/>
	<circle id="rightBrow2" cx="472.6" cy="147.3" r="0.8"/>
	<circle id="rightEye5" cx="473.8" cy="162.5" r="0.8"/>
	<circle id="rightEye2" cx="480.1" cy="156.5" r="0.8"/>
	<circle id="rightEye3" cx="485.3" cy="160.7" r="0.8"/>
	<circle id="nose0" cx="497.6" cy="155.4" r="0.8"/>
	<circle id="nose3" cx="497.6" cy="173.8" r="0.8"/>
	<circle id="rightNose0" cx="486.9" cy="178.3" r="0.8"/>
	<circle id="rightMouthCorner" cx="480.9" cy="200.4" r="0.8"/>
	<circle id="rightNose1" cx="492.1" cy="178.3" r="0.8"/>
	<circle id="rightUpperLipTop0" cx="487.8" cy="197" r="0.8"/>
	<circle id="nose2" cx="497.6" cy="166.7" r="0.8"/>
	<circle id="nose4" cx="497.6" cy="179.1" r="0.8"/>
	<circle id="upperLipTopMid" cx="498.4" cy="196.8" r="0.8"/>
	<circle id="rightUpperLipTop1" cx="494.3" cy="195.9" r="0.8"/>
	<path id="rightMiddleLip" d="M484.5,199.9c0.4,0,0.8,0.4,0.8,0.8c0,0.4-0.4,0.8-0.8,0.8s-0.8-0.4-0.8-0.8S484.1,199.9,484.5,199.9z
		"/>
	<circle id="lowerLipBottomMid" cx="498.4" cy="210" r="0.8"/>
	<circle id="upperLipBottomMid" cx="498.4" cy="200.4" r="0.8"/>
	<circle id="lowerLipTopMid" cx="498.4" cy="203.5" r="0.8"/>
	<circle id="rightUpperLipBottom1" cx="494.5" cy="199.9" r="0.8"/>
	<circle id="rightLowerLipTop0" cx="494.5" cy="202.8" r="0.8"/>
	<circle id="rightLowerLipBottom1" cx="494.3" cy="209.5" r="0.8"/>
	<circle id="rightLowerLipBottom0" cx="487.3" cy="206.7" r="0.8"/>
	<circle id="rightEye4" cx="480.1" cy="161.7" r="0.8"/>
	<circle id="jawMid" cx="498.4" cy="235.8" r="0.8"/>
	<circle id="rightJaw7" cx="483.4" cy="232.6" r="0.8"/>
	<circle id="rightJaw6" cx="473.4" cy="225.9" r="0.8"/>
	<circle id="rightJaw5" cx="461.8" cy="213.4" r="0.8"/>
	<circle id="rightJaw4" cx="455" cy="193.4" r="0.8"/>
	<circle id="rightJaw3" cx="454.2" cy="171.7" r="0.8"/>
	<circle id="rightJaw2" cx="454.2" cy="162.2" r="0.8"/>
	<circle id="rightJaw1" cx="455" cy="150.5" r="0.8"/>
	<circle id="rightJaw0" cx="457.5" cy="141.2" r="0.8"/>
	<circle id="topMid" cx="498.6" cy="115.1" r="0.8"/>
	<circle id="leftTop0" cx="518.3" cy="117.6" r="0.8"/>
	<circle id="leftTop1" cx="530.9" cy="127.1" r="0.8"/>
	<circle id="leftEye0" cx="528.2" cy="160.2" r="0.8"/>
	<circle id="leftBrow1" cx="530.1" cy="148.7" r="0.8"/>
	<circle id="leftBrow4" cx="506.5" cy="150.8" r="0.8"/>
	<circle id="leftBrow3" cx="516.5" cy="147.6" r="0.8"/>
	<circle id="leftEye1" cx="523" cy="156.5" r="0.8"/>
	<circle id="leftBrow0" cx="534.1" cy="151.6" r="0.8"/>
	<circle id="leftBrow2" cx="523.8" cy="147.2" r="0.8"/>
	<circle id="leftEye5" cx="523" cy="162.5" r="0.8"/>
	<circle id="leftEye2" cx="516.7" cy="156.5" r="0.8"/>
	<circle id="leftEye3" cx="511.5" cy="160.7" r="0.8"/>
	<circle id="leftNose0" cx="508" cy="178.3" r="0.8"/>
	<circle id="leftMouthCorner" cx="515.9" cy="200.4" r="0.8"/>
	<circle id="leftNose1" cx="503.2" cy="178.3" r="0.8"/>
	<circle id="leftUpperLipTop0" cx="509" cy="197" r="0.8"/>
	<circle id="leftUpperLipTop1" cx="502.6" cy="195.9" r="0.8"/>
	<path id="leftMiddleLip" d="M512.3,199.9c0.4,0,0.8,0.4,0.8,0.8c0,0.4-0.4,0.8-0.8,0.8c-0.4,0-0.8-0.4-0.8-0.8
		S511.9,199.9,512.3,199.9z"/>
	<circle id="leftUpperLipBottom1" cx="502.4" cy="199.9" r="0.8"/>
	<circle id="leftLowerLipTop0" cx="502.4" cy="202.8" r="0.8"/>
	<circle id="leftLowerLipBottom1" cx="502.6" cy="209.5" r="0.8"/>
	<circle id="leftLowerLipBottom0" cx="509.5" cy="206.7" r="0.8"/>
	<circle id="leftEye4" cx="516.7" cy="161.7" r="0.8"/>
	<circle id="leftJaw7" cx="513.2" cy="233" r="0.8"/>
	<circle id="leftJaw6" cx="523.2" cy="226.3" r="0.8"/>
	<circle id="leftJaw5" cx="534.8" cy="213.7" r="0.8"/>
	<circle id="leftJaw4" cx="541.6" cy="193.7" r="0.8"/>
	<circle id="leftJaw3" cx="542.4" cy="172.1" r="0.8"/>
	<circle id="leftJaw2" cx="542.4" cy="162.5" r="0.8"/>
	<circle id="leftJaw1" cx="541.6" cy="150.8" r="0.8"/>
	<circle id="leftJaw0" cx="539.1" cy="141.6" r="0.8"/>
	<polyline class="st17" points="498.4,115.1 478.6,117.6 466.1,127.1 457.5,141.2 455,150.5 454.2,162.2 454.2,171.7 455,193.4 
		461.8,213.4 473.4,225.9 483.4,232.6 498.4,235.8 513.2,233 523.2,226.3 534.8,213.7 541.6,193.7 542.4,172.1 542.4,162.5 
		541.6,150.8 539.1,141.6 530.9,127.1 518.3,117.6 498.4,115.1 	"/>
	<polyline class="st17" points="462.4,152 466.4,148.3 472.6,147.3 479.9,147.3 489.7,151.3 	"/>
	<polygon class="st17" points="468.6,160.2 473.8,156.5 480.1,156.5 485.3,160.7 480.1,161.7 473.8,162.5 	"/>
	<polyline class="st17" points="486.9,178.3 492.1,178.3 497.6,179.1 497.6,173.8 497.6,166.7 497.6,161.2 497.6,155.4 	"/>
	<polyline class="st17" points="533.9,151.6 529.9,148.7 523.6,147.2 516.3,147.6 506.3,150.8 	"/>
	<polygon class="st17" points="528,160.2 522.7,156.5 516.4,156.5 511.3,160.7 516.4,161.7 522.7,162.5 	"/>
	<polyline class="st17" points="508,178.3 503,178.3 497.6,179.1 	"/>
	<polygon class="st17" points="480.9,200.4 487.8,197 494.3,195.9 498.4,196.8 502.6,195.9 509,197 515.9,200.4 509.5,206.7 
		502.4,209.5 498.4,210 494.3,209.5 487.3,206.7 	"/>
	<polyline class="st17" points="480.9,200.4 484.5,200.7 494.5,199.9 498.4,200.4 502.4,199.9 512.3,200.7 515.9,200.4 	"/>
	<polyline class="st17" points="480.9,200.4 484.5,200.7 494.5,202.8 498.4,203.6 502.4,202.8 512.3,200.7 515.9,200.4 	"/>
	<circle id="rightTop0" cx="478.7" cy="117.6" r="0.8"/>
	<circle id="rightTop1" cx="466.1" cy="127.1" r="0.8"/>
</g>
</svg>
